<svg xmlns="http://www.w3.org/2000/svg" xmlns:xlink="http://www.w3.org/1999/xlink" width="275" height="497" viewBox="0 0 275 497"><defs><path id="n2asa" d="M216.3 735.8c43.1-1.8 217.4-10.2 238.8 3.3 21.4 13.5-44.1 11.7-99.9 16-55.7 4.3-68.7 1.6-70.8 1.2-2.1-.4 14.9-13.5 14.9-13.5s-.4-1-20 .9-59.6 8.5-73.7 2.2c-1.5-9.4 10.7-10.1 10.7-10.1z"/><path id="n2asb" d="M238.7 564.8c7.7 21.4 26.1 49.1 41.2 56.7 15.1 7.6 27.8-2.7 27.4-9.9-.4-7.2-3.5-39.3-10.1-44.7-6.7-5.4-33.2-10.7-34.7-10.4-1.5.2-23.8 8.3-23.8 8.3z"/><path id="n2asc" d="M297.2 610.1c-14.2-10.4-30.3-9.2-40.8 0-10.5 9.2-20.4 43.4-34.5 52.6-14.1 9.3-17.6 12.4-17.6 12.4s7.3 23.2 12.6 25c5.3 1.9 2.6-3.7 9.5-12.5 7-8.8 46.9-39.8 66.7-41.3 19.7-1.4 4.1-36.2 4.1-36.2z"/><path id="n2asd" d="M285.6 636.9c-2.1-17.5-13.7-28.9-29.3-26.7-10.5 9.2-20.4 43.3-34.5 52.6-14.1 9.3-17.6 12.4-17.6 12.4s7.3 23.2 12.6 25c5.3 1.9 2.6-3.7 9.5-12.5 6.1-7.7 37.4-31.2 58.4-39.2.9-3.8 1.4-7.6.9-11.6z"/><path id="n2ase" d="M259.3 658.9c-11.4 5.1-22.8 9.9-31.6 18.8-5.4 5.4-9.5 13.7-13.1 20.6.8 1 1.6 1.7 2.3 1.9 5.3 1.9 2.6-3.7 9.5-12.5 5.5-7 31.9-27 52.4-36.7-6.5 2.6-13.1 5-19.5 7.9z"/><path id="n2asf" d="M285.6 636.9c-2.1-17.5-13.7-28.9-29.3-26.7-2.7 2.4-5.3 6.7-8 12 9.6 2.3 19.4 10.4 23.4 16.8 2.4 3.8 4.1 8.4 5.1 13.3 2.8-1.5 5.5-2.8 8-3.7.8-3.9 1.3-7.7.8-11.7z"/><path id="n2asg" d="M315.3 680c3.1-19.2 11.1-37.7 16.2-56.5 1.7-6.2 3.2-12.5 4.4-18.8l-14.7-34.8s-35.5 18.2-32.3 36c3.2 17.9-9.6 25.3-4.7 47.1 5.5 24.5 4.7 54.2 1.1 75.8-3.6 21.6 21.7 16.8 30.8 10.6-3.6-7.7-7.4-44.7-.8-59.4z"/><path id="n2ash" d="M315.3 680c2.6-16.1 8.6-31.7 13.5-47.3-2.1-.8-4.2-1.5-6.4-2.2-12.3-3.8-24-5.1-36.2-3.4-2.3 7.1-4.5 14.5-2 25.9 5.5 24.5 4.7 54.2 1.1 75.8-3.6 21.6 21.7 16.8 30.8 10.6-3.6-7.7-7.4-44.7-.8-59.4z"/><path id="n2asi" d="M295.3 720c-4.3-.3-4.9 3.1-8.7.5l-1.2 8.4c-3.6 21.6 21.7 16.8 30.8 10.6-1.3-2.8-2.6-8.6-3.5-15.7-4.9.6-14.9-3.7-17.4-3.8z"/><path id="n2asj" d="M323.9 647.8c1.7-5.1 3.3-10.1 4.9-15.2-2.1-.8-4.2-1.5-6.4-2.2-12.3-3.8-24-5.1-36.2-3.4-1.4 4.4-2.9 9-3.1 14.6 12.4.4 24 .6 36.5 4.6 1.4.6 2.9 1.1 4.3 1.6z"/><path id="n2ask" d="M249.7 471.3c-1.2 1-2.4 2-3.7 2.9-2.1 1.5-3.9 3.3-6 4.9-2.9 7.7-6.5 15-8.5 23.2a134 134 0 0 0-3.8 35.1c.5 23.4 8.9 42.6 23.1 60.6 9 .2 25.4-8.7 33.4-18.6l.3-78c0-.2-19.7-23.1-34.8-30.1z"/><path id="n2asl" d="M228.8 537.5c-.3-.5-.7-.7-1.1-1.1v.8c.5 23.4 8.9 42.6 23.1 60.6 9 .2 25.4-8.7 33.4-18.6l.1-34c-38.9 8.7-51.6-.7-55.5-7.7z"/><path id="n2asm" d="M266.6 583.2c-5.5 2.3-14.2 6-21.9 6.4 1.9 2.8 3.9 5.5 6 8.3 9 .2 25.4-8.7 33.4-18.6v-5c-5.6 3.5-11.6 6.5-17.5 8.9z"/><path id="n2asn" d="M357 510.1c3.5 24.9-10.2 90-12.4 94.9-2.2 4.9-53.3 5.2-59.1.9-1.8-1.3-2.8-5.7-3.6-11.3-1.3-8.8-1.5-12.8-3.4-20.4-.8-3.3-8.8-12.2-11.6-13.8-17.8-9.7-33.6-34.3-13.8-58.5 19.9-24.2 82.6-21.9 82.6-21.9s17.5 6.1 21.3 30.1z"/><path id="n2aso" d="M254.4 517.8c8.5 4.4 18.1 6.8 27.3 9.1 11.1 2.8 22 6.6 33.3 8.5 11.7 2 23.8 3.4 35.4.4 2.4-.6 4.5-1.5 6.5-2.6.7-9.1.9-17.2 0-23.1-3.9-24.1-21.2-30-21.2-30s-62.7-2.3-82.6 21.9a42 42 0 0 0-6.8 11.2c3.5 2.2 7.2 4.1 8.1 4.6z"/><path id="n2asp" d="M335.9 565.5c-.5 13.8-1.2 28.2-2.5 42.6 2.2-.2 4.1-.5 5.7-.8 1.6-10.5 2.7-21.2 3.2-32.1 1.5-31.6 1.8-65.7-11.2-95.1h-3.8c9.5 26.8 9.5 58 8.6 85.4z"/><path id="n2asq" d="M342.8 537.2c-.8-19.7-3.8-39.2-11.7-57.1h-3.8c6.3 17.9 8.4 37.8 8.8 57.2 2.3 0 4.5 0 6.7-.1z"/><path id="n2asr" d="M315.2 604c-9.7.6-23 1-32.3-4.2.7 3.1 1.5 5.3 2.7 6.2 5.7 4.2 56.9 4 59.1-.9.4-.8 1-3.3 1.9-7-10.4 2.9-21.1 5.3-31.4 5.9z"/><path id="n2ass" d="M413.9 410c-.3-8.3-13.6-8.9-16.2-12.3-2.6-3.4 9.3-3.5 15.1-3.8 5.9-.3 6 13 6 13z"/><path id="n2ast" d="M204.6 370c-1-7.7 12.5-4.8 16.3-7.6 3.8-2.9-9.3-5.1-13.1-10.7-3.8-5.7-3.2 18.3-3.2 18.3z"/><path id="n2asu" d="M214.8 440c-16.8-24.2-16.5-50.6-27.4-77.5-2.5-7.1-1.2-22.2 5.2-24.3 6.4-2 8.4 1.8 13.8 1.6 5.3-.2 11-2.4 8.9 3.6-2.1 6-4.8 13.6-7.8 17.6-3 4-3.9 11.2.7 17.4 4.6 6.2 17 17.7 19 27.8 1.8 10.1 7.6 27.8-12.4 33.8z"/><path id="n2asv" d="M212.1 408.5c-.4 5.3 3.3 10.1 7.2 13.5 3.3-4.5 5-7.6 9.2-11.6-.2-.7-.3-1.4-.4-2.1-.8-4.2 2.2-2.1-.9-6.3-.4.2-3.4-5.1-6.9-5.1-5 .1-7.8 6.5-8.2 11.6z"/><path id="n2asw" d="M331.1 357.1c.1 6.2 7.7 4.4 10.3 3.3 2.6-1.1 2.3 3.1 3.9 4.2 1.5 1.1 4.8 0 6.4 2.3 1.7 2.3 7.3 5.3 9.9-.8 2.5-6 7.8-1.8 7.8-8.4 0-6.7 1.3-9.3 6-8.5 4.7.8 8.8-4.4 5.9-8.1-2.9-3.7-3.5-5.5 0-6.2 3.5-.7-.2-5.4 2.3-8.8 2.5-3.4 6.5-8.8 0-10.6-6.5-1.8-4.8-2.6-5.3-7.5s-2.5-12-7.9-11.8c-5.4.3-17.5 0-17.5 0l-16.6 21.1z"/><path id="n2asx" d="M335.9 369.4c-4.9-6-3.4-10.9 3.1-17.9 6.5-6.9-19.3-24.8-19.3-24.8L299 349.6l9.4 19.9h27.5z"/><path id="n2asy" d="M305.1 316.3c-1.7 12.3-5 38.3 23.5 39.8 31.5 1.7 29.8-35.5 25.2-50.7-4.6-15.2-9.4-21.9-18.7-20.5-9.3 1.5-28.6 3.4-30 31.4z"/><path id="n2asz" d="M317.7 317.8c3.1-.9 5.1-3.4 7.4-5.6 1.1-1.1 2.3-2.1 3.7-2.8 1.7-.8 3.6-.6 5.4-1.3 2.2-.8 1.7-2.7 2-4.6.1-.4.4-.6.7-.7.5-.5 1.7-.3 1.9.5.9 4.2 6.4 4.6 10 4.2.1-.1.1-.2.2-.3.4-.5 1-.5 1.4 0 1.8 2.3 1.9 5 5.1 5.9-.4-2.9-.9-5.6-1.6-7.8-4.6-15.2-9.4-21.9-18.7-20.5-9.1 1.4-27.9 3.3-29.9 29.8 3.4 3.1 7.5 4.6 12.4 3.2z"/><path id="n2asA" d="M307.1 316.8c9.9 3.6 11.5-6.3 10.3-11 8.8 2.4 14.6-1.8 15.3-9.5 7.3 1.8 14.8 1.7 14.1-6.6-.7-8.3 3.2-14.6-6.6-16.4-9.7-1.8-8.9-17.3-17.9-8.8-9 8.6-14.8-12-23.2.9-8.4 12.9-14.6-2.7-19.5 10.1s-17.5 5-14.6 19.4c2.9 14.5-14.6 4.4-7.7 25.7 3.9 12-17.2 18.9 5.6 28 3 3.9-7.4 10.9 17.1 11 24.5.1 32.6-13 27.1-28.6-3.8-7.8 0-14.2 0-14.2z"/><path id="n2asB" d="M303.7 331c-1-.6-1.7-1.6-2.3-2.8-.6 2.4-1.8 4.8-3.6 7.1-2.6 3.1-5.4 6.4-9.3 7.7-3.7 1.3-12.9 2.6-13-3-4.5 2.3-8.9 3.8-14.1 2.7-4-.9-6.7-3.8-8-7.5-2.3 4.6-2.4 8.8 9.6 13.5 3 3.9-7.4 10.9 17.1 11 24.2.1 32.4-12.7 27.3-28-1.3.2-2.5.1-3.7-.7z"/><path id="n2asC" d="M270.7 356.2c12.2-11.1 19.5-15.1 35.7-5.5 16.2 9.6 35.8 11.8 41.2 11 5.4-.8-10.4 16.4-10.4 16.4z"/><path id="n2asD" d="M312.9 318.6c-8.4-5-15 1.3-13 7.4 2 6 4.6 8.3 11.3 6.1 6.8-2.2 1.7-13.5 1.7-13.5z"/><path id="n2asE" d="M403.3 482.7c9.2-4.5 26.2-67.1 28.8-77.8 2.5-10.7-1.5-24.3-4.2-26.6-2.7-2.3-3.5 2.4-8.3.1-4.9-2.3-7.8 3.2-9.9 1.7-2-1.5-7.4 4.2-4.9 9.3 2.5 5 9.4 9.9 10.1 14.1.7 4.3-9.1 25.1-12.4 29-11.7 13.3-16.2 25.2-12.3 34.2 4.1 9.1 4.3 15.4 13.1 16z"/><path id="n2asF" d="M228 388.3c-11.2 3-23.4 42.6-13.1 51.7 6.3 4.4 47.5-33.8 47.5-33.8l-14.6-27.4z"/><path id="n2asG" d="M211.3 423.4c-.1 0-.1 0 0 0-.5 0-.8-.4-.7-.8 1.5-14.5 9.4-32.9 17.3-35 .4-.1.8.1.9.5.1.4-.1.8-.5.9-6.6 1.8-14.6 18.5-16.2 33.8-.2.4-.5.6-.8.6z"/><path id="n2asH" d="M232.4 419.2c2.2 2.7 4.6 4.8 7.2 6.6 11.6-9.3 22.7-19.7 22.7-19.7l-14.6-27.4-19.7 9.5c-2.2.6-4.4 2.6-6.5 5.5 1.4 9.4 4.8 18 10.9 25.5z"/><path id="n2asI" d="M221.8 387.4c2.1 12.1 10 33.2 24.4 36.8 5.5.9 29.9-38.9 31.8-49.4 2-10.9 8.8-21.9-3.3-22.5-12.1-.6-22.8 3.9-28.5 8.4-5.7 4.4-24.4 26.7-24.4 26.7z"/><path id="n2asJ" d="M262.3 364.8c-14 1.5-25.8 8.9-36.4 17.7-2.5 2.9-4.2 4.9-4.2 4.9 2.1 12.1 10 33.2 24.4 36.8 5.5.9 29.9-38.9 31.8-49.4.5-2.8 1.3-5.5 2.1-8.2-5.5-1.8-11.4-2.5-17.7-1.8z"/><path id="n2asK" d="M234.9 409.3c-4.8-8.1-8.8-17.9-8.3-27.6-2.8 3.3-4.8 5.6-4.8 5.6 2.1 12.1 10 33.2 24.4 36.8.9.1 2.2-.7 3.8-2.3-6-2.4-11.1-5.8-15.1-12.5z"/><path id="n2asL" d="M367.5 455.7c-.6-18.6-2.5-37-6.5-49.5-11.1-34.9-30-45.7-47.8-48.2-25.5-3.5-37.3-8.3-43.5-4.4-29.8 18.4-29.7 71.8-16.5 88.6-.6-.4-1.3-.4-1.8-.1-.2 7.9 2.4 12.2-2.5 19.3-3 7-7.6 13.2-11.3 19.9-3.8 7.1-6.2 14.3-8.2 21.9 7.2 6.4 19 13.2 38.5 19.1 46.7 14.3 72.3 13.5 91.7 3.3 1.6-2.2.8-5.3.4-7.9v-.7c2-27.7 4.4-35.7 5.3-49.9.8-10.1.4-5.8 2.2-11.4z"/><path id="n2asM" d="M348.1 379.5c-9.6 2.3-18.7 5.8-26.3 11.8 3.3 17 2.5 33.8 11.5 49.9 7.4 13.3 18.7 24.7 31.4 33.3.3-2.4.5-4.8.6-7.4.6-10.1.3-5.8 2-11.4-.6-18.6-2.5-37-6.5-49.5-3.4-11.3-7.8-20-12.7-26.7z"/><path id="n2asN" d="M341.1 422.5c8.7 18.4 2.2 94-1.8 103-1 3.9 4 6.4 5.5 0 1.4-6.4 9.6-71.6 2.7-101.1-3.7-8.9-6.4-1.9-6.4-1.9z"/><path id="n2asO" d="M360.3 518.9c-4.2 1.8-8.5 3.5-12.9 4.8-9.5 2.9-19.8 3-29.6 1.9-17.7-1.9-36.2-6.8-53-12.7-7-2.5-22.7-8.8-33.3-17.3-.8 2.5-1.5 5-2.2 7.5 7.2 6.4 19 13.2 38.5 19.1 46.7 14.3 72.3 13.5 91.7 3.3 1.5-1.8 1.2-4.3.8-6.6z"/><path id="n2asP" d="M337.5 428.5c11 17.2 49.6 53.7 63.1 54.9 13.5 1.2 5.6-51.7-28.2-72.5-33.7-20.9-34.9 17.6-34.9 17.6z"/><path id="n2asQ" d="M376 424.9c1-3.6 1.3-7.1 1.3-10.6-1.6-1.2-3.2-2.4-4.9-3.4-33.8-20.8-34.9 17.6-34.9 17.6 3.3 5.2 9.2 12.2 16.1 19.4 11.1-1.7 19.6-12.4 22.4-23z"/><path id="n2asR" d="M405.9 463.3c-.3 0-.6-.2-.7-.6-2.9-16-13.4-39-33.2-51.2-.3-.2-.4-.7-.2-1 .2-.3.7-.4 1-.2 20.2 12.5 30.9 35.9 33.8 52.1.1.4-.2.8-.6.8 0 .1 0 .1-.1.1z"/><path id="n2asS" d="M322 418.8c-4.7-2.2-13.3-20.9-9.4-32.3 1.4-4-9.8-25.1-4.7-26.2 19.9-4.2 41.1 12.9 55.6 33.7 5 5.7 8.8 10.1 10.7 12.4.9 1.1 1.3 2.4 1.1 3.8-3 20.5-11.9 28.1-30.6 30-1.4.1-2.9-.1-4.2-.7-10.5-4.9-18.5-20.7-18.5-20.7z"/><path id="n2asT" d="M374.2 406.5c-.3-.4-.7-.9-1.2-1.4-1.8 7.1-5.2 14-7.9 17.7-6.5 9-20.1 12.7-31.5 11.8 2.1 2 4.4 3.8 6.9 4.9 1.3.6 2.7.8 4.2.7 18.8-1.9 27.7-9.5 30.6-30 .2-1.3-.2-2.7-1.1-3.7z"/><path id="n2asU" d="M343.2 292.4c-1.6 6.3-4.9 12.1 6.4 10.4.2 5.5-.6 6.1 6.4 6.1s9.7 2.8 10.6-1.5c.9-4.4 8.2-24.6-9.7-26.1-5.5-.6-3-7.7-10.9-9.4-7.9-1.7-10.5.4-11.8 3-1.4 2.5 9 17.5 9 17.5z"/><path id="n2asV" d="M283.4 725.6c-1.1 10-7.8 20.6-5.5 25.5 2.4 4.9 2.4 5.1 12.7 5.8 10.3.7 17.3-3.9 24.8-3 7.4.9 30.1 1.4 13.3-13.2s-9.5-22-18.6-24.7c1.7 7.7 2.4 7.6 2.4 7.6-3.9 3.1-7.7 4.7-9.5 3.7-1.8-1-6.1-6.2-12.9-6.7-3.5-.2-6 1.1-6.7 5z"/><path id="n2asW" d="M331.8 751.6c-3.4-.6-7.5.2-11-.1-4.7-.3-9.5-1.5-14.3-1.7-6.1-.2-12 2.1-18.1 1.5-3.5-.4-8.6-1.8-10.7-4.8-.3 1.8-.3 3.3.3 4.5 2.4 4.9 2.4 5.1 12.7 5.8 10.3.7 17.3-3.9 24.8-3 4.6.5 15 .9 18.3-2.3-.5.2-1.2.2-2 .1z"/><path id="n2asX" d="M207.6 670.5c9.3.7 15.8 5.1 14.2 21.6 1.4-7.8 6.8-10.4 6.5-6.5-.3 3.8-3.8 17.5-7.5 24.5-3.7 6.9-1.5 16.9-6.4 22.3 5.8-1.2 9.8 9.6 8.3 12.3-1.6 2.8-12.9 1.7-16.9 1.3-4-.4-13.2-10.6-13.1-30 .1-19.4-10.9-23.9-6.1-37.5 2.8-8.2 3.4.5 21-8z"/><path id="n2asY" d="M206.8 732.9c-1.2-13.3-3.9-25.3-4-32.1-.1-5.1-.7-14.7-1.9-19.6-1.5-5.9-3.8-4-7.9-6.5-3.8 0-4.7-.9-6.4 3.8-4.8 13.6 6.2 18.1 6.1 37.5-.1 19.4 9.1 29.7 13.1 30 4 .3 15.4 1.5 16.9-1.3.4-.7.4-1.9.2-3.2-6.8 3.3-15.1 1.8-16.1-8.6z"/><path id="n2asZ" d="M204.2 731.9c-.2-12.1-5.1-23-5.1-35.4 0-4.4.1-9-.9-13.3-1.5-6.3-5-8.3-10-7.9-.5.5-1 1.5-1.6 3.1-4.8 13.6 6.2 18.1 6.1 37.5-.1 19.4 9.1 29.7 13.1 30 1.6.1 4.5.4 7.5.5-6.5-2.9-9-7.1-9.1-14.5z"/><path id="n2asaa" d="M215.9 694.1c0-.1.1-.2.1-.3.1-.3.2-.7.3-1.1.2-1.2.1-2.4-.5-3.5-.6-1.2-1.5-1.8-2.6-2-.9-.5-1.9-.7-3-.5-4 .6-6.8 6.6-3.2 9.4.8.6 1.7.9 2.6.9 2 1 4.2.2 5.6-1.5.1-.1.1-.2.2-.3.2-.4.4-.8.5-1.1z"/><path id="n2asab" d="M310.4 735.5c-.6-2.2-3.3-1.8-4.1 0-1.2 2.8-1.9 6.5-.8 9.4.3 1.3 1.8 2.4 3.4 1.7 3.4-1.8 2.3-8.2 1.5-11.1z"/><path id="n2asac" d="M264 391.5c-1.8 1.1-3.5 2.3-4.9 3.7l-1.4-1.3c0-1-.8-2-1.9-2.2-1.2-.2-2.2.5-2.3 1.6-.1 1.1.8 2.2 1.9 2.4.2 0 .4.1.7 0l1.4 1.3c-1.2 1.5-2.3 3.2-3 4.9l2.4 1.4c1.7-4 4.8-7.2 8.7-9.5z"/><path id="n2asad" d="M285.3 387.9l-1.8-.3.4-2.4c.8-.4 1.5-1.3 1.6-2.3.2-1.5-.8-2.8-2.3-2.8-1.5-.1-2.8 1.1-3 2.6-.1.9.2 1.8.9 2.3l-.4 2.4c-2.7-.1-5.3.1-7.9.7l.5 2.7c3.7-.8 7.5-.8 11.2 0 1.8.4 3.4 1 5 1.8l1.4-2.8c-1.7-.9-3.7-1.5-5.6-1.9z"/><path id="n2asae" d="M305.4 403.9c1.2.1 2.4-1 2.7-2.5.3-1.5-.4-2.8-1.6-2.9-1.1-.1-2.3.9-2.6 2.1l-1.9 1.2c-.9-2.2-2.1-4.2-3.5-6.1l-2.2 2.3c3.1 4 4.8 9.2 5.1 15l2.7-.6c-.1-2.7-.5-5.3-1.2-7.7l1.8-1.1c.2.2.4.3.7.3z"/><path id="n2asaf" d="M273 425.9c-1.2-.5-2.4-1.1-3.6-1.7-2.7-1.4-5.3-3-7.6-4.6-1.2-.8-2.5-1.9-3.7-3 1.7 8 6.7 16.1 13.6 20.3 8.6 5.2 18.2 1.5 23.7-8.5-2.7.9-5.8 1.2-9.2 1.1-4.1-.4-8.7-1.6-13.2-3.6z"/><path id="n2asag" d="M286.3 418.5c-2.4-1-3.7-4.2-2.9-7.1.8-2.9 3.5-4.6 6-3.8 2.5.8 3.8 4.1 2.9 7.1-.9 3.1-3.6 4.8-6 3.8zm-16.3-3.1a8 8 0 0 1-4.3-9c.9-3.6 4.4-5.5 7.8-4.4 3.4 1.1 5.4 5.2 4.3 9-1 3.9-4.5 5.9-7.8 4.4zm13.7-21.7c-11.7-2.9-23.3 3.5-25.8 14.3-.3 1.4-.5 2.9-.5 4.4 1.7 2.6 7.8 7.2 16.3 10.7 9.3 3.8 17.8 4.1 23.8.9.3-.8.4-1.7.6-2.6 2.5-13.2-3.7-25.1-14.4-27.7z"/><path id="n2asah" d="M347.3 326.7c0-1.05.63-1.9 1.4-1.9.77 0 1.4.85 1.4 1.9 0 1.05-.63 1.9-1.4 1.9-.77 0-1.4-.85-1.4-1.9z"/><path id="n2asai" d="M329.9 326c0-1.05.63-1.9 1.4-1.9.77 0 1.4.85 1.4 1.9 0 1.05-.63 1.9-1.4 1.9-.77 0-1.4-.85-1.4-1.9z"/><path id="n2asaj" d="M343.1 340.6c1.2 0 2.8-.5 3.6-2.3.3-.8.4-1.4.2-2-.3-.8-1.2-1.2-1.9-1.4-.4-.2-.9-.3-1-.6-.4-.5-.3-2.1 0-3.1.1-.4-.1-.8-.5-.9-.4-.1-.8.1-.9.5-.1.3-.8 3 .3 4.3.4.5 1 .8 1.6 1 .5.2 1 .4 1.1.7.1.2 0 .5-.1.9-.8 1.9-2.8 1.4-2.9 1.4-.4-.1-.8.1-.9.5-.1.4.1.8.5.9.2.1.5.1.9.1z"/><path id="n2asak" d="M334.6 347c.9 0 1.5-.2 1.5-.2.4-.1.6-.5.5-.9-.1-.4-.5-.6-.9-.5-.2.1-4.3 1.3-6.4-4.5-.1-.4-.5-.6-.9-.4-.4.1-.6.5-.4.9 1.6 4.8 4.7 5.6 6.6 5.6z"/><path id="n2asal" d="M325.2 320.1c-.1 0-.2 0-.3-.1-.4-.2-.5-.6-.4-.9 1.3-3.3 3.2-5.2 5.5-5.8 3.4-.9 6.5 1.5 6.6 1.6.3.2.4.7.1 1-.2.3-.7.4-1 .1 0 0-2.7-2-5.4-1.3-1.9.5-3.4 2.2-4.6 5 0 .2-.2.4-.5.4z"/><path id="n2asam" d="M353.6 317.2c-.3 0-.6-.2-.7-.5-.4-1.1-1.6-1.6-2.5-1.7-1.2-.1-2.3.2-2.8.9-.2.3-.7.4-1 .2-.3-.2-.4-.7-.2-1 .8-1.1 2.4-1.7 4.2-1.5 1.7.2 3.1 1.2 3.7 2.6.1.4 0 .8-.4.9-.2.1-.3.1-.3.1z"/><path id="n2asan" d="M283.6 329.6c-.1 0-.3 0-.4-.1-4-2.4-5.5-9-3.7-12.3.5-1 2.2-3.1 6-1.3.8.4 1.3.4 1.7.2 1.1-.6 1.2-3.6 1.4-6.2.2-3.4.4-6.5 2.2-7.6.8-.5 1.9-.5 3.1 0 6.1 2.6 10.8 3.2 12.5 1.8.8-.7 1.1-2 .7-3.8-1-4.6 3.5-9.4 8.5-11.7 4.4-2.1 8.3-1.8 10.2.6 1.2 1.5 2.6 2.2 4.2 2 2.9-.3 5.8-3 6.7-4.8.4-.8 1.3-1.2 2.7-1.3 4.1-.2 12.9 3.5 14.8 6.6.2.3.1.8-.3 1-.3.2-.8.1-1-.3-1.5-2.5-9.6-6-13.5-5.9-.8 0-1.3.2-1.5.5-1.1 2.1-4.5 5.3-7.9 5.6-2.1.2-4-.7-5.5-2.6-1.7-2.2-5.5-1.6-8.5-.2-4.3 2-8.5 6.2-7.7 10.1.5 2.4.1 4.1-1.2 5.2-2.9 2.4-9.2.5-14-1.6-.8-.3-1.4-.4-1.8-.1-1.2.7-1.3 3.8-1.5 6.5-.2 3.3-.4 6.3-2.1 7.3-.8.5-1.9.4-3.1-.2-1.9-.9-3.3-.7-4.1.7-1.4 2.7-.1 8.4 3.2 10.4.3.2.5.6.2 1 .1.4-.1.5-.3.5z"/><path id="n2asao" d="M282.5 295.6c-.3 0-.6-.2-.7-.5-1-3.3.1-6.9 2.9-8.9 2.7-2.1 6.2-2.1 9.3-.1 1.9 1.2 3.7 1.5 5.3.7 2.6-1.2 4.1-4.7 4.5-7.5.3-2.3 2.2-4.2 5.1-5.1 2.7-.9 6.4-.9 8.2 1.1 2.4 2.5 3.4 2.2 7.5.9l.4-.2c4.1-1.4 7.7.3 9.6 1.2.3.1.5.3.7.3.4.1.6.6.4.9-.1.4-.6.6-.9.4-.2-.1-.5-.2-.8-.4-1.7-.8-4.9-2.3-8.5-1.1l-.5.2c-4.2 1.4-6 2-9-1.2-1.2-1.3-4.1-1.6-6.8-.7-2.4.8-3.9 2.2-4.1 3.9-.4 3.3-2.2 7.2-5.3 8.6-1.4.7-3.7 1.1-6.7-.8-2.6-1.6-5.4-1.6-7.7.1a6.75 6.75 0 0 0-2.4 7.4c.1.4-.1.8-.5.9.1-.1 0-.1 0-.1z"/><path id="n2asap" d="M365.2 346.9c-.2 0-.5-.1-.6-.3-.2-.3-.1-.8.2-1 2.3-1.6 6.7-5.5 6.7-7.1 0-.1 0-.2-.1-.2-1.3-1-2.1-2.7-2-4.4.1-1.5.7-3.6 3.6-5.6 1.5-1 2.4-2.2 2.6-3.5.4-2.3-1-5.3-4.4-9.7-.2-.3-.2-.8.1-1 .3-.2.8-.2 1 .1 3.7 4.8 5.1 8.1 4.7 10.8-.3 1.7-1.3 3.2-3.2 4.5-1.9 1.3-2.9 2.8-3 4.4-.1 1.5.7 2.6 1.5 3.2.4.3.7.8.6 1.4-.1 3-7.3 8.2-7.4 8.2 0 .1-.2.2-.3.2z"/><path id="n2asaq" d="M306.7 328.2s-.1 0 0 0c-.5-.1-.8-.4-.7-.8 0-.1.2-1.6 1.5-2.3.6-.3 1.3-.4 2.2-.2-.5-1.3-1.2-2.4-2.2-3-.9-.6-1.8-.7-2.9-.4-.4.1-.8-.1-.9-.5-.1-.4.1-.8.5-.9 1.4-.4 2.8-.2 4 .6 1.6 1 2.7 2.9 3.1 5.2 0 .3-.1.5-.3.7-.2.2-.5.2-.7.1-.7-.3-1.6-.6-2.2-.3-.6.3-.7 1.2-.7 1.2 0 .3-.3.6-.7.6z"/><path id="n2asar" d="M397.5 438.8c4.1-5.2 7.9 4.9 7.8 20.7-3.1-10.3-7.8-20.7-7.8-20.7z"/><path id="n2asas" d="M279.6 453.8c-8.2 0-17.4-3-26.9-11.2-.3-.3-.3-.7-.1-1 .3-.3.7-.3 1-.1 19.2 16.5 36.7 11 48 3.6.3-.2.8-.1 1 .2.2.3.1.8-.2 1-6.1 4.1-13.9 7.5-22.8 7.5z"/><path id="n2asat" d="M271.7 466.9c-8.1 0-14.7-4.2-18.6-12-.2-.4 0-.8.3-1 .4-.2.8 0 1 .3 4.5 9 12.9 12.9 23.1 10.5.4-.1.8.1.9.5.1.4-.1.8-.5.9-2.3.6-4.3.8-6.2.8z"/><path id="n2asau" d="M287.3 639.6h-.1c-.4-.1-.6-.4-.6-.8 1.2-6.5 3.6-10.5 3.7-10.7.2-.3.6-.5 1-.2.3.2.5.6.2 1 0 0-2.3 4-3.5 10.2-.1.2-.4.5-.7.5z"/><path id="n2asav" d="M293.3 639.6c-.1 0-.1 0 0 0-.5 0-.8-.4-.7-.8.3-3.6 3.1-10.4 3.2-10.6.2-.4.6-.5.9-.4.4.2.5.6.4.9 0 .1-2.8 6.8-3.1 10.2-.1.4-.4.7-.7.7z"/><path id="n2asaw" d="M300.1 640.1h-.1c-.4-.1-.7-.4-.6-.8.1-.3 1.3-8.2 1.9-10.1.1-.4.5-.6.9-.5.4.1.6.5.5.9-.6 1.8-1.8 9.8-1.9 9.9 0 .3-.3.6-.7.6z"/><path id="n2asax" d="M308.4 641.1c-.1 0-.1-.1 0 0-.5 0-.8-.4-.7-.8 0-.1 1-8.7.9-10.4 0-.4.3-.7.7-.7.3 0 .7.3.7.7.1 1.8-.9 10.3-.9 10.6-.1.3-.4.6-.7.6z"/><path id="n2asay" d="M315.8 642.5h-.1c-.4-.1-.7-.4-.6-.8.5-3.6 1.2-9.3 1-10.5-.1-.4.2-.8.6-.8.4-.1.8.2.8.6.4 1.8-.8 10.1-.9 11-.1.3-.4.5-.8.5z"/><path id="n2asaz" d="M322.4 643.6h-.2c-.4-.1-.6-.5-.5-.9 0-.1 1.8-7 1.8-9.1 0-.4.3-.7.7-.7.4 0 .7.3.7.7 0 2.3-1.7 9.2-1.8 9.5-.1.3-.4.5-.7.5z"/><path id="n2asaA" d="M253.6 621.4h-.2c-.4-.1-.6-.5-.5-.9 2.4-8.3 9.5-8.4 9.5-8.4.4 0 .7.3.7.7 0 .4-.3.7-.7.7-.2 0-6.1.1-8.2 7.3 0 .4-.3.6-.6.6z"/><path id="n2asaB" d="M260.4 623.5h-.2c-.4-.1-.6-.5-.5-.9 1.6-6.4 9.4-8.4 9.8-8.5.4-.1.8.1.9.5.1.4-.1.8-.5.9-.1 0-7.3 1.9-8.7 7.4-.2.4-.5.6-.8.6z"/><path id="n2asaC" d="M267 628.1c-.2 0-.4-.1-.6-.3-.2-.3-.2-.8.1-1 2.9-2.2 8.9-6.7 8.9-6.7l.9 1.1s-6 4.5-8.8 6.7c-.2.1-.3.2-.5.2z"/><path id="n2asaD" d="M273 635.8c-.5 0-.8-.4-.8-.8s.4-.7.8-.7c1 0 4.5-3.4 6-7.3.1-.4.6-.5.9-.4.4.1.5.6.4.9-1.3 3.8-5.1 8.3-7.3 8.3z"/><path id="n2asaE" d="M289.5 732.6c-2.7 0-5.1-.5-6.4-1.6-.6-.6-1.3-1.7-.7-3.4.1-.4.5-.6.9-.4.4.1.6.5.4.9-.4 1.1 0 1.6.3 1.9 2.2 2.1 11 1.3 16.2-.8.4-.1.8 0 .9.4.1.4 0 .8-.4.9-2.8 1.2-7.4 2.1-11.2 2.1z"/><path id="n2asaF" d="M282.9 747.6c-.4 0-.7-.3-.7-.7 0-.4.1-10.6 3-15.3.2-.3.6-.5 1-.2.3.2.5.6.3 1-2.6 4.4-2.8 14.5-2.8 14.6-.1.2-.4.6-.8.6z"/><path id="n2asaG" d="M189 683.2h-1.5c-.4 0-.7-.3-.7-.7 0-.4.3-.6.7-.7 3.5.1 8.1-.2 8.2-.2.4-.1.7.3.8.7 0 .4-.3.7-.7.8-.1-.2-3.5.1-6.8.1z"/><path id="n2asaH" d="M196.5 688.4c-.1 0-5.2-.3-8.8-.4-.4 0-.7-.3-.7-.7 0-.4.4-.7.7-.7 3.6.1 8.8.4 8.8.4.4 0 .7.4.7.8 0 .3-.3.6-.7.6z"/><path id="n2asaI" d="M197.3 693.8c-.1 0-.1 0 0 0-.1 0-4.5-.3-8.1-.4-.4 0-.7-.3-.7-.7 0-.4.3-.6.7-.7 3.6.1 8 .4 8.1.4.4 0 .7.4.7.8 0 .3-.4.6-.7.6z"/><path id="n2asaJ" d="M197.1 699.2h-.1s-1.8-.3-5.3-.4c-.4 0-.7-.3-.7-.7 0-.4.2-.7.7-.7 3.6.1 5.4.4 5.5.4.4.1.7.4.6.8-.1.3-.4.6-.7.6z"/><path id="n2asaK" d="M197.8 704.6h-.1s-1.8-.3-5.3-.4c-.4 0-.7-.3-.7-.7 0-.4.3-.6.7-.7 3.6.1 5.4.4 5.5.4.4.1.7.4.6.8 0 .3-.3.6-.7.6z"/><path id="n2asaL" d="M198.6 710h-.1s-1.8-.3-5.3-.4c-.4 0-.7-.3-.7-.7 0-.4.4-.7.7-.7 3.6.1 5.4.4 5.5.4.4.1.7.4.6.8 0 .4-.3.6-.7.6z"/><path id="n2asaM" d="M199.4 715.4h-.1s-1.8-.3-5.3-.4c-.4 0-.7-.3-.7-.7 0-.4.3-.7.7-.7 3.6.1 5.4.4 5.5.4.4.1.7.4.6.8-.1.4-.4.6-.7.6z"/><path id="n2asaN" d="M201.1 720.8c-.1 0-3.5-.3-7.1-.4-.4 0-.7-.3-.7-.7 0-.4.3-.7.7-.7 3.6.1 7.1.4 7.1.4.4 0 .7.4.7.8s-.3.6-.7.6z"/><path id="n2asaO" d="M201.9 726.3c-.1 0-.1 0 0 0-.1 0-3.5-.3-7.1-.4-.4 0-.7-.3-.7-.7 0-.4.3-.7.7-.7 3.6.1 7.1.4 7.1.4.4 0 .7.4.7.8-.1.3-.4.6-.7.6z"/><path id="n2asaP" d="M202.6 731.7c-.1 0-2.4-.3-5.9-.4-.4 0-.7-.3-.7-.7 0-.4.3-.6.7-.7 3.6.1 5.9.4 6 .4.4 0 .7.4.6.8 0 .3-.3.6-.7.6z"/><path id="n2asaQ" d="M203.4 737.1h-.1s-1.6-.3-5.1-.4c-.4 0-.7-.3-.7-.7 0-.4.3-.7.7-.7 3.6.1 5.2.4 5.3.4.4.1.6.4.6.8-.1.3-.4.6-.7.6z"/><path id="n2asaR" d="M205.3 742.5c-.1 0-.2 0-.3-.1 0 0-.8-.2-4-.3-.4 0-.7-.3-.7-.7 0-.4.4-.7.7-.7 3.4.1 4.3.3 4.5.4.4.2.5.6.3 1 .1.2-.2.4-.5.4z"/><path id="n2asaS" d="M341.6 441.9c-.1 0-.2 0-.3-.1-14.3-7.1-19.7-22.1-19.9-22.7-.1-.4.1-.8.4-.9.4-.1.8.1.9.4.1.1 5.5 15 19.2 21.9.4.2.5.6.3 1-.1.2-.4.4-.6.4z"/><path id="n2asaT" d="M330.1 432.8c-.1 0-.1 0 0 0-.3 0-6.2-.3-8.6-1.9-.3-.2-.4-.7-.2-1 .2-.3.7-.4 1-.2 1.7 1.2 6.3 1.6 7.9 1.7.4 0 .7.4.7.8-.1.3-.5.6-.8.6z"/><path id="n2asaU" d="M260.4 556.1c-6.7-6.4-10.2-7.2-14.7-8.4-4.5-1.1 4-9.6 4-9.6l13.7 4.6 2.5 8.2-3.5 3.8z"/><path id="n2asaV" d="M385 738v.3c0 .8.7 1.5 1.5 1.5s1.5-.7 1.5-1.5v-.3c0-.8-.7-1.5-1.5-1.5-.8.1-1.5.7-1.5 1.5z"/></defs><g><g transform="translate(-185 -261)"><g><g><g><use fill="#cfd9e0" xlink:href="#n2asa"/></g><g><g><g><g><g><g><use fill="#8080f1" xlink:href="#n2asb"/></g></g><g><g><use fill="#8080f1" xlink:href="#n2asc"/></g></g><g><g><use fill="#c7ebff" xlink:href="#n2asd"/></g></g><g><g><use fill="#92cdfa" xlink:href="#n2ase"/></g></g><g><g><use fill="#5eb2fc" xlink:href="#n2asf"/></g></g><g><g><use fill="#b3b3fc" xlink:href="#n2asg"/></g></g><g><g><use fill="#c7ebff" xlink:href="#n2ash"/></g></g><g><g><use fill="#92cdfa" xlink:href="#n2asi"/></g></g><g><g><use fill="#5eb2fc" xlink:href="#n2asj"/></g></g><g><g><use fill="#1273eb" xlink:href="#n2ask"/></g></g><g><g><use fill="#0161cd" xlink:href="#n2asl"/></g></g><g><g><use fill="#5eb2fc" xlink:href="#n2asm"/></g></g><g><g><use fill="#1273eb" xlink:href="#n2asn"/></g></g><g><g><use fill="#0161cd" xlink:href="#n2aso"/></g></g><g><g><use fill="#92cdfa" xlink:href="#n2asp"/></g></g><g><g><use fill="#5eb2fc" xlink:href="#n2asq"/></g></g><g><g><use fill="#92cdfa" xlink:href="#n2asr"/></g></g><g><g><use fill="#8080f1" xlink:href="#n2ass"/></g></g><g><g><use fill="#8080f1" xlink:href="#n2ast"/></g></g><g><g><use fill="#b3b3fc" xlink:href="#n2asu"/></g></g><g><g><use fill="#8080f1" xlink:href="#n2asv"/></g></g><g><g><use fill="#ec3a3b" xlink:href="#n2asw"/></g></g><g><g><use fill="#8080f1" xlink:href="#n2asx"/></g></g><g><g><use fill="#b3b3fc" xlink:href="#n2asy"/></g></g><g><g><use fill="#8080f1" xlink:href="#n2asz"/></g></g><g><g><use fill="#fb5252" xlink:href="#n2asA"/></g></g><g><g><use fill="#ec3a3b" xlink:href="#n2asB"/></g></g><g><g><use fill="#92cdfa" xlink:href="#n2asC"/></g></g><g><g><use fill="#b3b3fc" xlink:href="#n2asD"/></g></g><g><g><use fill="#b3b3fc" xlink:href="#n2asE"/></g></g><g><g><use fill="#b3b3fc" xlink:href="#n2asF"/></g></g><g><g><use fill="#8080f1" xlink:href="#n2asG"/></g></g><g><g><use fill="#8080f1" xlink:href="#n2asH"/></g></g><g><g><use fill="#1273eb" xlink:href="#n2asI"/></g></g><g><g><use fill="#0161cd" xlink:href="#n2asJ"/></g></g><g><g><use fill="#5eb2fc" xlink:href="#n2asK"/></g></g><g><g><use fill="#1273eb" xlink:href="#n2asL"/></g></g><g><g><use fill="#0161cd" xlink:href="#n2asM"/></g></g><g><g><use fill="#92cdfa" xlink:href="#n2asN"/></g></g><g><g><use fill="#92cdfa" xlink:href="#n2asO"/></g></g><g><g><use fill="#b3b3fc" xlink:href="#n2asP"/></g></g><g><g><use fill="#8080f1" xlink:href="#n2asQ"/></g></g><g><g><use fill="#8080f1" xlink:href="#n2asR"/></g></g><g><g><use fill="#1273eb" xlink:href="#n2asS"/></g></g><g><g><use fill="#92cdfa" xlink:href="#n2asT"/></g></g><g><g><use fill="#fb5252" xlink:href="#n2asU"/></g></g><g><g><use fill="#fb5252" xlink:href="#n2asV"/></g></g><g><g><use fill="#ffdecc" xlink:href="#n2asW"/></g></g><g><g><use fill="#fb5252" xlink:href="#n2asX"/></g></g><g><g><use fill="#ffdecc" xlink:href="#n2asY"/></g></g><g><g><use fill="#c12020" xlink:href="#n2asZ"/></g></g><g><g><use fill="#ffdecc" xlink:href="#n2asaa"/></g></g><g><g><use fill="#ffdecc" xlink:href="#n2asab"/></g></g></g><g><g><g><use fill="#92cdfa" xlink:href="#n2asac"/></g></g><g><g><use fill="#92cdfa" xlink:href="#n2asad"/></g></g><g><g><use fill="#92cdfa" xlink:href="#n2asae"/></g></g><g><g><use fill="#92cdfa" xlink:href="#n2asaf"/></g></g><g><g><use fill="#92cdfa" xlink:href="#n2asag"/></g></g></g><g><g><g><g><use fill="#193554" xlink:href="#n2asah"/></g></g><g><g><use fill="#193554" xlink:href="#n2asai"/></g></g><g><g><g><use fill="#4949e7" xlink:href="#n2asaj"/></g></g></g><g><g><g><use fill="#3636cc" xlink:href="#n2asak"/></g></g></g></g><g><g><use fill="#1273eb" xlink:href="#n2asal"/></g></g><g><g><use fill="#1273eb" xlink:href="#n2asam"/></g></g><g><g><use fill="#ffa68f" xlink:href="#n2asan"/></g></g><g><g><use fill="#ffa68f" xlink:href="#n2asao"/></g></g><g><g><use fill="#ff8578" xlink:href="#n2asap"/></g></g><g><g><use fill="#8080f1" xlink:href="#n2asaq"/></g></g><g><g><use fill="#8080f1" xlink:href="#n2asar"/></g></g><g><g><use fill="#0161cd" xlink:href="#n2asas"/></g></g><g><g><use fill="#0161cd" xlink:href="#n2asat"/></g></g><g><g><use fill="#0161cd" xlink:href="#n2asau"/></g></g><g><g><use fill="#0161cd" xlink:href="#n2asav"/></g></g><g><g><use fill="#0161cd" xlink:href="#n2asaw"/></g></g><g><g><use fill="#0161cd" xlink:href="#n2asax"/></g></g><g><g><use fill="#0161cd" xlink:href="#n2asay"/></g></g><g><g><use fill="#0161cd" xlink:href="#n2asaz"/></g></g><g><g><use fill="#0161cd" xlink:href="#n2asaA"/></g></g><g><g><use fill="#0161cd" xlink:href="#n2asaB"/></g></g><g><g><use fill="#0161cd" xlink:href="#n2asaC"/></g></g><g><g><use fill="#0161cd" xlink:href="#n2asaD"/></g></g><g><g><use fill="#ec3a3b" xlink:href="#n2asaE"/></g></g><g><g><use fill="#ec3a3b" xlink:href="#n2asaF"/></g></g><g><g><g><use fill="#ec3a3b" xlink:href="#n2asaG"/></g></g><g><g><use fill="#ec3a3b" xlink:href="#n2asaH"/></g></g><g><g><use fill="#ec3a3b" xlink:href="#n2asaI"/></g></g><g><g><use fill="#ec3a3b" xlink:href="#n2asaJ"/></g></g><g><g><use fill="#ec3a3b" xlink:href="#n2asaK"/></g></g><g><g><use fill="#ec3a3b" xlink:href="#n2asaL"/></g></g><g><g><use fill="#ec3a3b" xlink:href="#n2asaM"/></g></g><g><g><use fill="#ec3a3b" xlink:href="#n2asaN"/></g></g><g><g><use fill="#ec3a3b" xlink:href="#n2asaO"/></g></g><g><g><use fill="#ec3a3b" xlink:href="#n2asaP"/></g></g><g><g><use fill="#ec3a3b" xlink:href="#n2asaQ"/></g></g><g><g><use fill="#ec3a3b" xlink:href="#n2asaR"/></g></g></g></g><g><g><use fill="#0161cd" xlink:href="#n2asaS"/></g></g><g><g><use fill="#0161cd" xlink:href="#n2asaT"/></g></g></g><g><g><use fill="#1273eb" xlink:href="#n2asaU"/></g></g></g></g><g><g><g><use fill="#cfd9e0" xlink:href="#n2asaV"/></g></g></g></g></g></g></g></svg>